<?xml version="1.0" encoding="UTF-8" standalone="no"?>
<svg
   xmlns:dc="http://purl.org/dc/elements/1.1/"
   xmlns:cc="http://creativecommons.org/ns#"
   xmlns:rdf="http://www.w3.org/1999/02/22-rdf-syntax-ns#"
   xmlns:svg="http://www.w3.org/2000/svg"
   xmlns="http://www.w3.org/2000/svg"
   id="svg16"
   viewBox="-0.5 -0.5 358 190"
   height="190"
   width="358"
   version="1.1">
  <metadata
     id="metadata20">
    <rdf:RDF>
      <cc:Work
         rdf:about="">
        <dc:format>image/svg+xml</dc:format>
        <dc:type
           rdf:resource="http://purl.org/dc/dcmitype/StillImage" />
        <dc:title></dc:title>
      </cc:Work>
    </rdf:RDF>
  </metadata>
  <defs
     id="defs2" />
  <g
     transform="matrix(0.29605263,0,0,0.29605263,192.09868,17.098685)"
     id="g14">
    <circle
       style="fill:#dae8fc;stroke:#6c8ebf;stroke-width:6"
       r="225"
       id="ellipse4"
       pointer-events="none"
       cy="253"
       cx="253" />
    <path
       style="fill:#10739e;stroke:none"
       id="path6"
       pointer-events="none"
       d="m 167.11,329.63 c 4.61,24.16 -9.03,48.08 -32.17,56.41 -23.14,8.34 -48.91,-1.4 -60.76,-22.95 -11.84,-21.55 -6.26,-48.52 13.17,-63.6 19.44,-15.07 46.95,-13.77 64.88,3.06 l -17.12,18.23 c -8.96,-8.42 -22.72,-9.07 -32.43,-1.53 -9.72,7.53 -12.51,21.02 -6.59,31.79 5.93,10.78 18.81,15.65 30.38,11.48 11.57,-4.16 18.39,-16.13 16.09,-28.2 z" />
    <path
       style="fill:#10739e;stroke:none"
       id="path8"
       pointer-events="none"
       d="m 353.77,302.55 c 17.93,-16.83 45.44,-18.13 64.88,-3.06 19.43,15.08 25.01,42.05 13.17,63.6 -11.85,21.55 -37.62,31.29 -60.76,22.95 -23.14,-8.33 -36.78,-32.25 -32.17,-56.41 l 24.55,4.69 c -2.3,12.07 4.52,24.04 16.09,28.2 11.57,4.17 24.45,-0.7 30.38,-11.48 5.92,-10.77 3.13,-24.26 -6.59,-31.79 -9.71,-7.54 -23.47,-6.89 -32.43,1.53 z" />
    <path
       style="fill:#10739e;stroke:none"
       id="path10"
       pointer-events="none"
       d="M 237.55,141.55 C 214.16,133.95 199.77,110.47 203.62,86.18 207.46,61.89 228.41,44 253,44 c 24.59,0 45.54,17.89 49.38,42.18 3.85,24.29 -10.54,47.77 -33.93,55.37 l -7.72,-23.77 c 11.69,-3.8 18.89,-15.54 16.96,-27.69 C 275.77,77.94 265.3,69 253,69 c -12.3,0 -22.77,8.94 -24.69,21.09 -1.93,12.15 5.27,23.89 16.96,27.69 z" />
    <path
       style="fill:#10739e;stroke:none"
       id="path12"
       pointer-events="none"
       d="m 173,253 c 0,-44.18 35.82,-80 80,-80 21.22,0 41.57,8.43 56.57,23.43 15,15 23.43,35.35 23.43,56.57 0,21.22 -8.43,41.57 -23.43,56.57 -15,15 -35.35,23.43 -56.57,23.43 -21.22,0 -41.57,-8.43 -56.57,-23.43 C 181.43,294.57 173,274.22 173,253 Z m 80,-55 c -30.38,0 -55,24.62 -55,55 0,30.38 24.62,55 55,55 30.38,0 55,-24.62 55,-55 0,-30.38 -24.62,-55 -55,-55 z" />
  </g>
  <g
     aria-label="TiaC Systems"
     transform="matrix(0.98019283,0,0,0.98019283,6.3724111,-10.66365)"
     style="font-style:normal;font-variant:normal;font-weight:normal;font-stretch:normal;font-size:42.66666794px;line-height:1.25;font-family:Montserrat;-inkscape-font-specification:'Montserrat, weight=280';font-variant-ligatures:normal;font-variant-caps:normal;font-variant-numeric:normal;font-feature-settings:normal;text-align:start;letter-spacing:0px;word-spacing:0px;writing-mode:lr-tb;text-anchor:start;display:inline;fill:#10739e;fill-opacity:1;stroke:none"
     id="flowRoot845">
    <path
       d="m 13.392859,61.720735 h 21.930668 v 1.749334 H 25.254193 v 28.074667 h -1.792 V 63.470069 H 13.392859 Z"
       id="path823" />
    <path
       d="m 40.272783,69.315402 h 1.749333 v 22.229334 h -1.749333 z m 0.896,-7.936 q 0.597333,0 1.024,0.469333 0.469333,0.426667 0.469333,1.066667 0,0.682667 -0.469333,1.152 -0.426667,0.426667 -1.024,0.426667 -0.597334,0 -1.066667,-0.426667 -0.426667,-0.469333 -0.426667,-1.152 0,-0.64 0.426667,-1.066667 0.469333,-0.469333 1.066667,-0.469333 z"
       id="path825" />
    <path
       d="m 65.232704,91.544736 -0.04267,-4.394667 q -1.365334,2.261334 -3.669334,3.370667 -2.261333,1.066667 -5.205333,1.066667 -2.176,0 -3.84,-0.853334 -1.664,-0.853333 -2.602667,-2.304 -0.896,-1.493333 -0.896,-3.370666 0,-2.773334 2.218667,-4.352001 2.218666,-1.621333 6.058666,-1.621333 h 7.893334 v -2.176 q -0.04267,-2.858667 -1.706667,-4.437333 -1.664,-1.578667 -4.949333,-1.578667 -2.005334,0 -3.797334,0.768 -1.792,0.725333 -3.669333,2.133333 l -0.85333,-1.365333 q 2.176001,-1.578667 4.181334,-2.346667 2.005333,-0.810667 4.394667,-0.810667 3.882667,0 5.973333,2.005334 2.133334,2.005333 2.176,5.504 l 0.08533,14.762667 z m -8.661333,-1.578667 q 3.2,0 5.418667,-1.408 2.218666,-1.408 3.2,-4.266666 v -3.626667 h -7.765334 q -3.285333,0 -5.034667,1.109333 -1.706666,1.109334 -1.706666,3.242667 0,2.218667 1.578666,3.584 1.621334,1.365333 4.309334,1.365333 z"
       id="path827" />
    <path
       d="m 97.2753,66.926069 q -1.877333,-1.749334 -4.309333,-2.730667 -2.432,-0.981333 -5.077334,-0.981333 -3.712,0 -6.869333,1.792 -3.114667,1.792 -4.949334,4.864 -1.834666,3.072 -1.834666,6.698667 0,3.626666 1.834666,6.698667 1.834667,3.072 4.949334,4.906666 3.157333,1.792 6.869333,1.792 2.645334,0 5.034667,-0.938666 2.432,-0.981334 4.352,-2.730667 l 1.109334,1.237333 q -2.090667,1.962667 -4.864001,3.072 -2.730666,1.109334 -5.674666,1.109334 -4.181334,0 -7.722667,-2.005334 -3.541334,-2.048 -5.632,-5.504 -2.048,-3.498667 -2.048,-7.594667 0,-4.096 2.048,-7.552 2.090666,-3.498667 5.632,-5.504 3.541333,-2.048 7.722667,-2.048 2.944,0 5.632,1.066667 2.730667,1.066666 4.864,2.986666 z"
       id="path829" />
    <path
       d="m 33.659527,118.8514 q -1.621334,-1.06666 -3.712,-1.62133 -2.090667,-0.55467 -4.096001,-0.55467 -3.541333,0 -5.674666,1.408 -2.133334,1.408 -2.133334,3.75467 0,2.048 1.066667,3.328 1.109333,1.28 2.688,2.00533 1.621333,0.68267 4.352,1.536 3.029334,0.896 4.906667,1.74934 1.877333,0.85333 3.157333,2.51733 1.28,1.664 1.28,4.30934 0,2.304 -1.28,4.096 -1.28,1.74933 -3.626666,2.73066 -2.346667,0.93867 -5.461334,0.93867 -2.944,0 -5.802667,-1.19467 -2.858667,-1.19466 -4.821333,-3.15733 l 0.938666,-1.57867 q 1.792001,1.92 4.437334,3.02934 2.645333,1.06666 5.290667,1.06666 3.882667,0 6.144,-1.57866 2.261333,-1.62134 2.261333,-4.30934 0,-2.09066 -1.109333,-3.37066 -1.109333,-1.32267 -2.773333,-2.04801 -1.621334,-0.72533 -4.352001,-1.536 -3.072,-0.93866 -4.906666,-1.74933 -1.792,-0.85333 -3.072,-2.47467 -1.237334,-1.62133 -1.237334,-4.224 0,-2.13333 1.194667,-3.75466 1.237333,-1.62134 3.456,-2.47467 2.261333,-0.896 5.162667,-0.896 2.261333,0 4.522667,0.68267 2.304,0.64 4.010666,1.74933 z"
       id="path831" />
    <path
       d="m 48.336819,148.07807 q -1.024,2.47467 -2.602666,3.79734 -1.578667,1.32266 -3.541334,1.32266 -2.517333,0 -4.224,-1.28 l 0.768,-1.536 q 1.493333,1.024 3.370667,1.024 1.493333,0 2.730667,-1.024 1.237333,-1.024 2.048,-2.98666 l 1.024,-2.51734 -9.173334,-22.22933 h 1.877333 l 8.192001,20.13867 7.978667,-20.13867 h 1.877333 z"
       id="path833" />
    <path
       d="m 73.851411,125.80607 q -2.474667,-1.57867 -5.632,-1.57867 -2.474667,0 -4.010667,0.98134 -1.536,0.93866 -1.536,2.85866 0,1.28 0.768,2.13334 0.768,0.85333 1.92,1.32266 1.152,0.46934 3.114667,1.06667 2.346667,0.72533 3.754667,1.36534 1.408,0.64 2.389333,1.83466 1.024,1.19467 1.024,3.15734 0,2.944 -2.218666,4.48 -2.218667,1.49333 -5.504001,1.49333 -2.346666,0 -4.48,-0.81067 -2.133333,-0.81066 -3.669333,-2.26133 l 0.810666,-1.36533 q 1.450667,1.36533 3.370667,2.09066 1.962667,0.72534 4.053334,0.72534 2.56,0 4.224,-1.06667 1.706667,-1.06667 1.706667,-3.11467 0,-1.36533 -0.810667,-2.21866 -0.768,-0.896 -1.962667,-1.408 -1.194667,-0.512 -3.2,-1.10934 -2.304,-0.72533 -3.669333,-1.32267 -1.365334,-0.64 -2.346667,-1.792 -0.981334,-1.19466 -0.981334,-3.072 0,-2.77333 2.048001,-4.18133 2.090666,-1.408 5.248,-1.408 3.498666,0 6.357333,1.74933 z"
       id="path835" />
    <path
       d="m 92.112675,143.34207 q -2.346667,1.57867 -4.736,1.57867 -2.389334,0 -3.669334,-1.536 -1.28,-1.57867 -1.28,-4.65067 V 124.7394 h -3.242667 v -1.536 h 3.242667 v -5.504 h 1.706667 v 5.504 h 7.552 v 1.536 h -7.552 v 13.78134 q 0,4.65067 3.456,4.65067 1.962667,0 3.84,-1.28 z"
       id="path837" />
    <path
       d="m 105.59529,122.60607 q 3.2,0 5.54667,1.49333 2.38933,1.45067 3.584,4.096 1.23733,2.64534 1.19467,6.05867 H 96.507294 q 0.128,2.688 1.322667,4.736 1.194667,2.048 3.242669,3.2 2.048,1.10934 4.608,1.10934 2.26133,0 4.18133,-0.768 1.96267,-0.81067 3.328,-2.304 l 1.024,1.152 q -1.57867,1.70666 -3.79733,2.64533 -2.21867,0.896 -4.82134,0.896 -3.11466,0 -5.58933,-1.408 -2.474666,-1.45067 -3.882666,-3.968 -1.365333,-2.56 -1.365333,-5.76 0,-3.2 1.408,-5.76 1.408,-2.56 3.839999,-3.968 2.47467,-1.45067 5.58933,-1.45067 z m 8.704,10.06933 q -0.256,-3.84 -2.60266,-6.144 -2.34667,-2.304 -6.10134,-2.304 -3.75466,0 -6.229329,2.34667 -2.474667,2.304 -2.816,6.10133 z"
       id="path839" />
    <path
       d="m 150.26724,122.60607 q 3.968,0 6.18667,2.304 2.26133,2.304 2.26133,6.4 v 13.568 h -1.74933 V 131.6514 q 0,-3.41333 -1.87733,-5.33333 -1.87734,-1.92 -5.248,-1.92 -3.968,0.0853 -6.22934,2.64533 -2.21866,2.56 -2.21866,6.95467 v 10.88 h -1.74934 V 131.6514 q 0,-3.41333 -1.92,-5.33333 -1.87733,-1.92 -5.20533,-1.92 -3.968,0.0853 -6.22933,2.688 -2.26134,2.56 -2.26134,6.912 v 10.88 h -1.74933 v -22.22933 h 1.74933 v 5.84533 q 1.06667,-2.85867 3.328,-4.30933 2.304,-1.49334 5.632,-1.57867 3.328,0 5.46134,1.70667 2.13333,1.664 2.73066,4.736 1.024,-3.11467 3.328,-4.736 2.34667,-1.62134 5.76,-1.70667 z"
       id="path841" />
    <path
       d="m 177.70184,125.80607 q -2.47467,-1.57867 -5.632,-1.57867 -2.47467,0 -4.01067,0.98134 -1.536,0.93866 -1.536,2.85866 0,1.28 0.768,2.13334 0.768,0.85333 1.92,1.32266 1.152,0.46934 3.11467,1.06667 2.34666,0.72533 3.75466,1.36534 1.408,0.64 2.38934,1.83466 1.024,1.19467 1.024,3.15734 0,2.944 -2.21867,4.48 -2.21867,1.49333 -5.504,1.49333 -2.34667,0 -4.48,-0.81067 -2.13333,-0.81066 -3.66933,-2.26133 l 0.81066,-1.36533 q 1.45067,1.36533 3.37067,2.09066 1.96267,0.72534 4.05333,0.72534 2.56,0 4.224,-1.06667 1.70667,-1.06667 1.70667,-3.11467 0,-1.36533 -0.81067,-2.21866 -0.768,-0.896 -1.96266,-1.408 -1.19467,-0.512 -3.2,-1.10934 -2.304,-0.72533 -3.66934,-1.32267 -1.36533,-0.64 -2.34666,-1.792 -0.98134,-1.19466 -0.98134,-3.072 0,-2.77333 2.048,-4.18133 2.09067,-1.408 5.248,-1.408 3.49867,0 6.35734,1.74933 z"
       id="path843" />
  </g>
</svg>
